<?xml version="1.0" standalone="no"?><svg xmlns="http://www.w3.org/2000/svg" viewBox="0 0 1440 320"><path fill="#273036" fill-opacity="1" d="M0,160L21.8,149.3C43.6,139,87,117,131,106.7C174.5,96,218,96,262,106.7C305.5,117,349,139,393,138.7C436.4,139,480,117,524,128C567.3,139,611,181,655,170.7C698.2,160,742,96,785,85.3C829.1,75,873,117,916,160C960,203,1004,245,1047,218.7C1090.9,192,1135,96,1178,90.7C1221.8,85,1265,171,1309,202.7C1352.7,235,1396,213,1418,202.7L1440,192L1440,320L1418.2,320C1396.4,320,1353,320,1309,320C1265.5,320,1222,320,1178,320C1134.5,320,1091,320,1047,320C1003.6,320,960,320,916,320C872.7,320,829,320,785,320C741.8,320,698,320,655,320C610.9,320,567,320,524,320C480,320,436,320,393,320C349.1,320,305,320,262,320C218.2,320,175,320,131,320C87.3,320,44,320,22,320L0,320Z"></path></svg>